#!OML:ASF F:\VICON\USERDATA\INSTALL\rory3\rory3.ASF
:FULLY-SPECIFIED
:DEGREES
233
root 4.83646 17.3074 2.81372 11.7344 -20.9513 -3.90409
lowerback -1.01257 2.31442 2.18662
upperback -5.16527 3.12776 0.248859
thorax -4.66036 1.46623 -1.05713
lowerneck -10.5527 1.82378 -0.662287
upperneck 40.9508 2.3637 0.890589
head 16.4615 0.897216 0.872095
rclavicle -5.87657e-015 1.61016e-014
rhumerus 15.6133 -0.000978138 -20.3934
rradius 117.321
rwrist -47.9338
rhand -4.36021 -41.921
rfingers 7.12502
rthumb 21.408 -70.7583
lclavicle -5.87657e-015 1.61016e-014
lhumerus 24.0491 14.9243 11.0477
lradius 83.9265
lwrist 65.5868
lhand -25.4292 -27.7142
lfingers 7.12502
lthumb 1.09706 2.26269
rfemur -48.3304 -8.66717 11.4693
rtibia 36.8421
rfoot 32.6293 -14.7029
rtoes 3.39284
lfemur -23.3929 2.95193 -27.1513
ltibia 29.3243
lfoot -15.7547 12.6602
ltoes 11.2529
234
root 4.83588 17.3029 2.8056 11.7014 -20.8332 -3.92636
lowerback -0.916214 2.27373 2.16126
upperback -5.14124 3.07718 0.290281
thorax -4.69501 1.44278 -1.00271
lowerneck -10.397 1.74444 -0.687704
upperneck 40.909 2.29839 0.755328
head 16.4032 0.848156 0.803015
rclavicle 3.23149e-014 1.07344e-014
rhumerus 15.5769 0.16716 -20.6721
rradius 117.309
rwrist -48.0853
rhand -3.95001 -42.339
rfingers 7.12502
rthumb 21.802 -71.131
lclavicle 3.23149e-014 1.07344e-014
lhumerus 24.3252 15.7636 11.8223
lradius 84.9604
lwrist 67.112
lhand -21.7199 -12.8434
lfingers 7.12502
lthumb 4.67925 17.085
rfemur -48.5488 -8.56554 11.688
rtibia 36.8537
rfoot 32.4848 -14.429
rtoes 3.44487
lfemur -23.4636 2.99292 -27.1087
ltibia 29.4708
lfoot -15.8576 12.4571
ltoes 11.8658
235
root 4.83731 17.2977 2.79986 11.6483 -20.7147 -3.77265
lowerback -0.96994 2.22728 2.04389
upperback -5.04769 3.00905 0.257115
thorax -4.57226 1.41541 -0.964969
lowerneck -10.4176 1.66449 -0.635111
upperneck 40.854 2.24378 0.546414
head 16.3847 0.805541 0.691876
rclavicle -4.28808e-014 4.57205e-015
rhumerus 15.5981 0.216802 -20.9497
rradius 117.287
rwrist -48.1639
rhand -3.45133 -42.8013
rfingers 7.12502
rthumb 22.2808 -71.5368
lclavicle -4.28808e-014 4.57205e-015
lhumerus 23.8728 13.7275 11.212
lradius 83.7255
lwrist 65.3062
lhand -26.2418 -36.6353
lfingers 7.12502
lthumb 0.312224 -6.65575
rfemur -48.8439 -8.60258 11.7767
rtibia 36.8892
rfoot 32.587 -13.5914
rtoes 3.11898
lfemur -23.5676 2.97901 -27.2604
ltibia 29.5981
lfoot -15.8141 12.4575
ltoes 11.2988
236
root 4.83434 17.2825 2.76779 11.8774 -20.2434 -3.41482
lowerback -1.13878 2.06104 1.67505
upperback -5.07327 2.77331 0.163254
thorax -4.52175 1.31148 -0.843806
lowerneck -10.6134 1.64931 -0.500942
upperneck 40.8388 2.239 0.41646
head 16.4305 0.806484 0.612092
rclavicle -7.43107e-014 -1.78906e-014
rhumerus 15.4803 0.329708 -21.1913
rradius 117.253
rwrist -48.0029
rhand -3.24107 -42.8304
rfingers 7.12502
rthumb 22.4826 -71.5416
lclavicle -7.43107e-014 -1.78906e-014
lhumerus 24.0982 13.8783 11.6779
lradius 84.3747
lwrist 65.0966
lhand -27.6749 -39.8941
lfingers 7.12502
lthumb -1.07196 -9.917
rfemur -49.5616 -8.80845 11.6764
rtibia 37.0074
rfoot 32.3645 -14.7568
rtoes 5.87523
lfemur -24.1892 2.78608 -27.5661
ltibia 29.7949
lfoot -15.6579 12.1776
ltoes 10.7122
237
root 4.8328 17.2759 2.77978 11.4178 -20.6634 -3.34541
lowerback -0.932457 2.19905 1.65456
upperback -4.82763 2.95706 0.0727478
thorax -4.37326 1.40533 -0.932818
lowerneck -10.7557 1.64812 -0.494851
upperneck 40.8638 2.17093 0.580913
head 16.4769 0.800867 0.674846
rclavicle 9.04936e-015 7.35503e-015
rhumerus 15.2961 0.591727 -21.4721
rradius 117.142
rwrist -47.8258
rhand -3.49995 -42.7028
rfingers 7.12502
rthumb 22.2341 -71.4439
lclavicle 9.04936e-015 7.35503e-015
lhumerus 24.2546 14.0696 12.0836
lradius 84.9525
lwrist 65.4899
lhand -26.9082 -35.8529
lfingers 7.12502
lthumb -0.331472 -5.87345
rfemur -49.442 -8.46939 11.8134
rtibia 36.9941
rfoot 32.514 -14.4422
rtoes 6.12384
lfemur -23.6781 3.18467 -27.6955
ltibia 29.8707
lfoot -15.9479 12.1371
ltoes 11.4588
238
root 4.83035 17.2623 2.75203 11.6485 -20.2969 -3.15442
lowerback -0.833656 2.04911 1.37541
upperback -5.00916 2.75421 0.0472636
thorax -4.63586 1.31095 -0.806744
lowerneck -10.7021 1.67859 -0.620723
upperneck 40.8842 2.13395 0.871608
head 16.4667 0.80521 0.819612
rclavicle -1.74884e-014 -2.5842e-015
rhumerus 15.2513 0.961132 -21.8331
rradius 116.987
rwrist -47.6142
rhand -3.90379 -42.6749
rfingers 7.12502
rthumb 21.8463 -71.4617
lclavicle -1.74884e-014 -2.5842e-015
lhumerus 24.1916 13.8483 12.2647
lradius 85.1627
lwrist 65.9315
lhand -25.4688 -33.9092
lfingers 7.12502
lthumb 1.05881 -3.93209
rfemur -50.058 -8.64988 11.9527
rtibia 36.9696
rfoot 33.108 -13.2379
rtoes 3.46734
lfemur -24.206 3.05113 -27.8444
ltibia 30.0559
lfoot -15.9902 11.7322
ltoes 11.9801
239
root 4.83509 17.2729 2.77018 11.2314 -20.7646 -3.3456
lowerback -0.487239 2.17271 1.58724
upperback -4.86293 2.93134 0.0838829
thorax -4.66739 1.39184 -0.903289
lowerneck -10.5358 1.73964 -0.643942
upperneck 40.8539 2.21834 0.901558
head 16.4064 0.841049 0.847759
rclavicle 1.73393e-015 -5.1684e-015
rhumerus 15.3109 1.34384 -22.178
rradius 116.828
rwrist -47.3852
rhand -4.12949 -42.5353
rfingers 7.12502
rthumb 21.6296 -71.3472
lclavicle 1.73393e-015 -5.1684e-015
lhumerus 24.0555 13.566 12.4361
lradius 85.4001
lwrist 66.1514
lhand -24.9416 -32.7381
lfingers 7.12502
lthumb 1.56799 -2.76414
rfemur -49.7315 -8.17723 12.3227
rtibia 36.7851
rfoot 33.12 -12.756
rtoes 3.18564
lfemur -23.647 3.39284 -27.7115
ltibia 30.1507
lfoot -16.2333 11.9414
ltoes 11.9493
240
root 4.83376 17.2632 2.7636 11.2004 -20.6895 -3.4875
lowerback -0.313188 2.13554 1.71878
upperback -4.81847 2.88979 0.122452
thorax -4.71663 1.36632 -0.941654
lowerneck -10.5029 1.78007 -0.571233
upperneck 40.8992 2.29905 0.802097
head 16.4253 0.871309 0.80389
rclavicle 5.0364e-015 1.13307e-014
rhumerus 15.1967 1.63945 -22.359
rradius 116.721
rwrist -47.2381
rhand -4.26679 -42.2496
rfingers 7.12502
rthumb 21.4977 -71.0767
lclavicle 5.0364e-015 1.13307e-014
lhumerus 24.0497 13.493 12.7329
lradius 85.8022
lwrist 66.2195
lhand -25.329 -29.4789
lfingers 7.12502
lthumb 1.19377 0.497487
rfemur -49.8625 -8.00905 12.7082
rtibia 36.6596
rfoot 33.2038 -12.7363
rtoes 3.28414
lfemur -23.6774 3.39771 -27.553
ltibia 30.3059
lfoot -16.1881 11.947
ltoes 11.6324
241
root 4.8349 17.2611 2.76296 11.168 -20.6031 -3.56307
lowerback -0.276477 2.10695 1.83803
upperback -4.73846 2.85473 0.127567
thorax -4.64937 1.3455 -1.00109
lowerneck -10.5411 1.82408 -0.629121
upperneck 40.945 2.33993 0.911965
head 16.4558 0.89353 0.870853
rclavicle -2.87151e-015 -7.55382e-015
rhumerus 15.0647 1.83798 -22.5766
rradius 116.691
rwrist -47.0532
rhand -3.99381 -42.3099
rfingers 7.12502
rthumb 21.7599 -71.1068
lclavicle -2.87151e-015 -7.55382e-015
lhumerus 24.0313 13.3248 13.0251
lradius 86.0781
lwrist 66.2399
lhand -25.4784 -27.4373
lfingers 7.12502
lthumb 1.04949 2.53987
rfemur -49.9955 -8.02442 13.1147
rtibia 36.5378
rfoot 33.5022 -11.7545
rtoes 1.88348
lfemur -23.6947 3.38955 -27.4787
ltibia 30.4795
lfoot -16.2052 11.9381
ltoes 11.7018
242
root 4.8345 17.2585 2.75691 11.1289 -20.5685 -3.45457
lowerback -0.228827 2.08882 1.7308
upperback -4.69968 2.8271 0.0834439
thorax -4.63925 1.33552 -0.986922
lowerneck -10.6006 1.87057 -0.73459
upperneck 40.8896 2.34516 1.1556
head 16.4328 0.913776 0.998662
rclavicle -3.3444e-014 1.78906e-015
rhumerus 15.0926 2.0055 -22.9227
rradius 116.63
rwrist -46.8161
rhand -3.83905 -42.5075
rfingers 7.12502
rthumb 21.9085 -71.2871
lclavicle -3.3444e-014 1.78906e-015
lhumerus 23.9981 13.0711 13.2964
lradius 86.2904
lwrist 66.2946
lhand -24.9707 -29.1615
lfingers 7.12502
lthumb 1.53986 0.812728
rfemur -50.1857 -7.92491 13.2522
rtibia 36.4222
rfoot 33.6448 -11.6241
rtoes 2.31364
lfemur -23.756 3.38475 -27.5895
ltibia 30.5852
lfoot -16.2167 11.9242
ltoes 11.8462
243
root 4.82587 17.2358 2.7086 11.4797 -20.122 -3.11043
lowerback -0.139622 1.92286 1.19312
upperback -4.91072 2.59326 0.0373803
thorax -4.93816 1.23585 -0.734794
lowerneck -10.7274 1.89893 -0.717578
upperneck 40.9017 2.361 1.22092
head 16.4697 0.9318 1.02957
rclavicle -9.46712e-015 -1.59028e-014
rhumerus 15.0743 2.27341 -23.1718
rradius 116.517
rwrist -46.4751
rhand -4.20396 -42.3374
rfingers 7.12502
rthumb 21.5581 -71.1576
lclavicle -9.46712e-015 -1.59028e-014
lhumerus 24.0982 12.8324 13.7077
lradius 86.5283
lwrist 66.3297
lhand -24.4432 -33.9602
lfingers 7.12502
lthumb 2.04931 -3.99031
rfemur -50.9972 -7.77396 13.0771
rtibia 36.3679
rfoot 33.9195 -12.2482
rtoes 2.84715
lfemur -24.5967 3.12999 -27.8437
ltibia 30.7438
lfoot -15.9436 11.646
ltoes 11.4712
244
root 4.83055 17.2531 2.74903 11.0481 -20.5486 -3.22917
lowerback -0.28884 2.08195 1.46929
upperback -4.62185 2.8071 0.0101999
thorax -4.53242 1.33617 -0.91165
lowerneck -10.6995 1.82829 -0.733418
upperneck 40.8897 2.28813 1.13983
head 16.4589 0.887865 0.983804
rclavicle 2.03133e-015 1.03368e-014
rhumerus 14.9431 2.50657 -23.3905
rradius 116.483
rwrist -46.3894
rhand -3.93221 -42.353
rfingers 7.12502
rthumb 21.8191 -71.143
lclavicle 2.03133e-015 1.03368e-014
lhumerus 24.2449 12.6297 14.228
lradius 86.8117
lwrist 66.3065
lhand -24.4314 -34.1008
lfingers 7.12502
lthumb 2.06076 -4.13097
rfemur -50.5633 -7.60044 13.4811
rtibia 36.2083
rfoot 33.7293 -11.651
rtoes 2.81501
lfemur -23.897 3.53949 -27.8168
ltibia 30.7526
lfoot -16.2502 11.7694
ltoes 11.5602
